<?xml version="1.0" encoding="utf-8"?><svg xmlns="http://www.w3.org/2000/svg" xmlns:xlink="http://www.w3.org/1999/xlink" width="1366" height="611" preserveAspectRatio="xMidYMid" viewBox="0 0 1366 611" style="z-index:1;margin-right:-2px;display:block;animation-play-state:paused" ><g transform="translate(683,305.5) scale(1,1) translate(-683,-305.5)" style="transform:matrix(1, 0, 0, 1, 0, 0);animation-play-state:paused" ><path id="path0" d="M 726.6161227533681 180.33496217121063
c 0 25.44864438855456 -6.2267959674122855 7.309717005223119 -13.536512972635403 7.309717005223119
S 699.5430968080974 205.7836065597652 699.5430968080974 180.33496217121063
s 6.2267959674122855 -7.309717005223119 13.536512972635403 -7.309717005223119
S 726.6161227533681 154.88631778265608 726.6161227533681 180.33496217121063
z" class="circles" fill="none" stroke="none" style="animation-play-state:running" ></path>


<circle cx="0" cy="0" r="5.30140287895458" fill="#65d5e8" opacity="0.9" transform="translate(725.2142333984375 192.9075469970703)" style="opacity:0.9;animation-play-state:running" ></circle>
<path id="path1" d="M 604.3152879336205 185.71789591366692
c 0 23.16493524137415 -5.66801606969793 6.653757994862788 -12.321774064560717 6.653757994862788
S 579.6717398044991 208.88283115504106 579.6717398044991 185.71789591366692
s 5.66801606969793 -6.653757994862788 12.321774064560717 -6.653757994862788
S 604.3152879336205 162.55296067229278 604.3152879336205 185.71789591366692
z" class="circles" fill="none" stroke="none" style="animation-play-state:running" ></path>


<circle cx="0" cy="0" r="5.89992260490228" fill="#65d5e8" opacity="0.9" transform="translate(591.98486328125 179.0640411376953)" style="opacity:0.9;animation-play-state:running" ></circle>
<path id="path2" d="M 133.5919197582373 429.38103658641955
c 0 25.560091854821444 -6.254065028307374 7.341728511491266 -13.59579353979864 7.341728511491266
S 106.40033267864003 454.941128441241 106.40033267864003 429.38103658641955
s 6.254065028307374 -7.341728511491266 13.59579353979864 -7.341728511491266
S 133.5919197582373 403.8209447315981 133.5919197582373 429.38103658641955
z" class="circles" fill="none" stroke="none" style="animation-play-state:running" ></path>


<circle cx="0" cy="0" r="6.031633381156182" fill="#65d5e8" opacity="0.9" transform="translate(116.95704650878906 437.6429748535156)" style="opacity:0.9;animation-play-state:running" ></circle>
<path id="path3" d="M 676.4049201384043 275.0464868606389
c 0 26.700066260940496 -6.532994936187567 7.669167968568015 -14.202162904755582 7.669167968568015
S 648.0005943288932 301.7465531215794 648.0005943288932 275.0464868606389
s 6.532994936187567 -7.669167968568015 14.202162904755582 -7.669167968568015
S 676.4049201384043 248.34642059969838 676.4049201384043 275.0464868606389
z" fill="none" stroke="none" style="animation-play-state:running" ></path>


<circle cx="0" cy="0" r="5.40956789884675" fill="#65d5e8" opacity="0.9" transform="translate(648.0059204101562 276.3207702636719)" style="opacity:0.9;animation-play-state:running" ></circle>
<path id="path4" d="M 1114.0458484084322 235.61333646497664
c 0 35.11977648213917 -8.593136798821286 10.087595372529337 -18.680732171350623 10.087595372529337
S 1076.684384065731 270.73311294711584 1076.684384065731 235.61333646497664
s 8.593136798821286 -10.087595372529337 18.680732171350623 -10.087595372529337
S 1114.0458484084322 200.49355998283747 1114.0458484084322 235.61333646497664
z" class="circles" fill="none" stroke="none" style="animation-play-state:running" ></path>


<circle cx="0" cy="0" r="4.685103376561737" fill="#65d5e8" opacity="0.9" transform="translate(1088.171630859375 222.1478271484375)" style="opacity:0.9;animation-play-state:running" ></circle>
<path id="path5" d="M 554.1667643397839 369.1841714046416
c 0 36.89353910100934 -9.027142545991646 10.597080380077152 -19.624222926068796 10.597080380077152
S 514.9183184876463 406.0777105056509 514.9183184876463 369.1841714046416
s 9.027142545991646 -10.597080380077152 19.624222926068796 -10.597080380077152
S 554.1667643397839 332.29063230363226 554.1667643397839 369.1841714046416
z" class="circles" fill="none" stroke="none" style="animation-play-state:running" ></path>


<circle cx="0" cy="0" r="7.598122945786504" fill="#6c63ff" opacity="0.9" transform="translate(515.7556762695312 354.8636169433594)" style="opacity:0.9;animation-play-state:running" ></circle>
<path id="path6" d="M 1152.5595737321648 586.4069086220742
c 0 23.468367499099255 -5.742260132758328 6.740914068890212 -12.48317420164854 6.740914068890212
S 1127.5932253288677 609.8752761211734 1127.5932253288677 586.4069086220742
s 5.742260132758328 -6.740914068890212 12.48317420164854 -6.740914068890212
S 1152.5595737321648 562.9385411229749 1152.5595737321648 586.4069086220742
z" fill="none" stroke="none" style="animation-play-state:running" ></path>


<circle cx="0" cy="0" r="6.516262236248463" fill="#6c63ff" opacity="0.9" transform="translate(1147.201904296875 575.4304809570312)" style="opacity:0.9;animation-play-state:running" ></circle>
<path id="path7" d="M 206.88743957438308 489.14754189912304
c 0 30.249999571451813 -7.401595639823315 8.688829664140414 -16.09042530396373 8.688829664140414
S 174.7065889664556 519.3975414705749 174.7065889664556 489.14754189912304
s 7.401595639823315 -8.688829664140414 16.09042530396373 -8.688829664140414
S 206.88743957438308 458.8975423276712 206.88743957438308 489.14754189912304
z" class="circles" fill="none" stroke="none" style="animation-play-state:running" ></path>


<circle cx="0" cy="0" r="7.072282519890513" fill="#6c63ff" opacity="0.9" transform="translate(176.63323974609375 473.79937744140625)" style="opacity:0.9;animation-play-state:running" ></circle>
<path id="path8" d="M 797.3829099507307 390.55977708860235
c 0 36.578125711430225 -8.9499669293925 10.506482917112939 -19.45644984650544 10.506482917112939
S 758.4700102577199 427.1379028000326 758.4700102577199 390.55977708860235
s 8.9499669293925 -10.506482917112939 19.45644984650544 -10.506482917112939
S 797.3829099507307 353.9816513771721 797.3829099507307 390.55977708860235
z" fill="none" stroke="none" style="animation-play-state:running" ></path>


<circle cx="0" cy="0" r="7.1088720133724905" fill="#6c63ff" opacity="0.9" transform="translate(760.4291381835938 372.590576171875)" style="opacity:0.9;animation-play-state:running" ></circle>
<path id="path9" d="M 887.7350120818098 131.18329194714053
c 0 28.0441193571284 -6.861858991637799 8.0552257727922 -14.91708476443 8.0552257727922
S 857.9008425529498 159.22741130426894 857.9008425529498 131.18329194714053
s 6.861858991637799 -8.0552257727922 14.91708476443 -8.0552257727922
S 887.7350120818098 103.13917259001212 887.7350120818098 131.18329194714053
z" fill="none" stroke="none" style="animation-play-state:running" ></path>


<circle cx="0" cy="0" r="5.665447180046815" fill="#f3f33b" opacity="0.9" transform="translate(887.1104736328125 120.36607360839844)" style="opacity:0.9;animation-play-state:running" ></circle>
<path id="path10" d="M 294.4724981458495 286.54656711998643
c 0 29.791994364021924 -7.289530535877705 8.557274976899915 -15.84680551277762 8.557274976899915
S 262.77888712029426 316.3385614840084 262.77888712029426 286.54656711998643
s 7.289530535877705 -8.557274976899915 15.84680551277762 -8.557274976899915
S 294.4724981458495 256.7545727559645 294.4724981458495 286.54656711998643
z" class="circles" fill="none" stroke="none" style="animation-play-state:running" ></path>


<circle cx="0" cy="0" r="4.846878748977085" fill="#f3f33b" opacity="0.9" transform="translate(264.967529296875 301.9893493652344)" style="opacity:0.9;animation-play-state:running" ></circle>
<path id="path11" d="M 577.4166783628862 484.81368618129403
c 0 33.56679409633074 -8.21315174697454 9.64152596383968 -17.854677710814222 9.64152596383968
S 541.7073229412576 518.3804802776248 541.7073229412576 484.81368618129403
s 8.21315174697454 -9.64152596383968 17.854677710814222 -9.64152596383968
S 577.4166783628862 451.2468920849633 577.4166783628862 484.81368618129403
z" fill="none" stroke="none" style="animation-play-state:running" ></path>


<circle cx="0" cy="0" r="7.14949195557008" fill="#f3f33b" opacity="0.9" transform="translate(577.2705078125 477.98065185546875)" style="opacity:0.9;animation-play-state:running" ></circle>
<path id="path12" d="M 159.05856960350988 537.3723379545507
c 0 26.412768416776473 -6.462698655168711 7.5866462473719665 -14.049344902540676 7.5866462473719665
S 130.95987979842855 563.7851063713272 130.95987979842855 537.3723379545507
s 6.462698655168711 -7.5866462473719665 14.049344902540676 -7.5866462473719665
S 159.05856960350988 510.95956953777426 159.05856960350988 537.3723379545507
z" fill="none" stroke="none" style="animation-play-state:running" ></path>


<circle cx="0" cy="0" r="6.97457621971006" fill="#f3f33b" opacity="0.9" transform="translate(147.2093963623047 529.3004150390625)" style="opacity:0.9;animation-play-state:running" ></circle>
<path id="path13" d="M 150.6503633595443 504.4533507897004
c 0 21.173206897136836 -5.180678283341991 6.08166581087973 -11.26234409422172 6.08166581087973
S 128.12567517110082 525.6265576868373 128.12567517110082 504.4533507897004
s 5.180678283341991 -6.08166581087973 11.26234409422172 -6.08166581087973
S 150.6503633595443 483.28014389256356 150.6503633595443 504.4533507897004
z" class="circles" fill="none" stroke="none" style="animation-play-state:running" ></path>


<circle cx="0" cy="0" r="7.034044122980924" fill="#f3f33b" opacity="0.9" transform="translate(150.64328002929688 503.1616516113281)" style="opacity:0.9;animation-play-state:running" ></circle>
<path id="path14" d="M 1341.9449482238988 438.487794041608
c 0 19.749114247368677 -4.832230081802974 5.672617922116535 -10.50484800391951 5.672617922116535
S 1320.9352522160598 458.2369082889767 1320.9352522160598 438.487794041608
s 4.832230081802974 -5.672617922116535 10.50484800391951 -5.672617922116535
S 1341.9449482238988 418.7386797942394 1341.9449482238988 438.487794041608
z" fill="none" stroke="none" style="animation-play-state:running" ></path>


<circle cx="0" cy="0" r="4.269548459131524" fill="#f3f33b" opacity="0.9" transform="translate(1324.8531494140625 428.775146484375)" style="opacity:0.9;animation-play-state:running" ></circle>
<path id="path15" d="M 809.1476719351059 492.67062908053373
c 0 21.22177649744802 -5.192562334481962 6.0956166535223035 -11.288178988004265 6.0956166535223035
S 786.5713139590974 513.8924055779818 786.5713139590974 492.67062908053373
s 5.192562334481962 -6.0956166535223035 11.288178988004265 -6.0956166535223035
S 809.1476719351059 471.4488525830857 809.1476719351059 492.67062908053373
z" class="circles" fill="none" stroke="none" style="animation-play-state:running" ></path>


<circle cx="0" cy="0" r="4.738151886148265" fill="#6c63ff" opacity="0.9" transform="translate(801.8355102539062 500.5139465332031)" style="opacity:0.9;animation-play-state:running" ></circle>
<path id="path16" d="M 25.409771482841112 218.8541048557716
c 0 22.92051593040868 -5.608211344674463 6.5835524480961105 -12.191763792770573 6.5835524480961105
S 1.0262438972999668 241.77462078618026 1.0262438972999668 218.8541048557716
s 5.608211344674463 -6.5835524480961105 12.191763792770573 -6.5835524480961105
S 25.409771482841112 195.93358892536293 25.409771482841112 218.8541048557716
z" class="circles" fill="none" stroke="none" style="animation-play-state:running" ></path>


<circle cx="0" cy="0" r="6.09705707151941" fill="#6c63ff" opacity="0.9" transform="translate(1.5718528032302856 227.89096069335938)" style="opacity:0.9;animation-play-state:running" ></circle>
<path id="path17" d="M 63.57919962638557 111.31163915902599
c 0 29.096124172703625 -7.1192644252359925 8.357397368755297 -15.476661793991289 8.357397368755297
S 32.625876038402986 140.4077633317296 32.625876038402986 111.31163915902599
s 7.1192644252359925 -8.357397368755297 15.476661793991289 -8.357397368755297
S 63.57919962638557 82.21551498632236 63.57919962638557 111.31163915902599
z" class="circles" fill="none" stroke="none" style="animation-play-state:running" ></path>


<circle cx="0" cy="0" r="4.185373710562375" fill="#6c63ff" opacity="0.9" transform="translate(43.71040725708008 121.29608917236328)" style="opacity:0.9;animation-play-state:running" ></circle>
<path id="path18" d="M 729.497692215321 481.54919912211466
c 0 27.581657370639753 -6.748703399199088 7.922390946885886 -14.671094346084974 7.922390946885886
S 700.1555035231511 509.1308564927544 700.1555035231511 481.54919912211466
s 6.748703399199088 -7.922390946885886 14.671094346084974 -7.922390946885886
S 729.497692215321 453.9675417514749 729.497692215321 481.54919912211466
z" class="circles" fill="none" stroke="none" style="animation-play-state:running" ></path>


<circle cx="0" cy="0" r="5.605145833794281" fill="#f3f33b" opacity="0.9" transform="translate(702.134033203125 467.2982177734375)" style="opacity:0.9;animation-play-state:running" ></circle>
<path id="path19" d="M 45.5652463486411 529.2401692314447
c 0 23.111775157095337 -5.655008815033965 6.638488608952916 -12.293497423986882 6.638488608952916
S 20.978251500667337 552.35194438854 20.978251500667337 529.2401692314447
s 5.655008815033965 -6.638488608952916 12.293497423986882 -6.638488608952916
S 45.5652463486411 506.1283940743494 45.5652463486411 529.2401692314447
z" class="circles" fill="none" stroke="none" style="animation-play-state:running" ></path>


<circle cx="0" cy="0" r="4.620064393926492" fill="#f3f33b" opacity="0.9" transform="translate(28.244483947753906 520.137939453125)" style="opacity:0.9;animation-play-state:running" ></circle>
<path id="path20" d="M 571.5875903008805 324.1758280636809
c 0 35.26489360403664 -8.628644179711092 10.12927795009563 -18.757922129806722 10.12927795009563
S 534.071746041267 359.4407216677175 534.071746041267 324.1758280636809
s 8.628644179711092 -10.12927795009563 18.757922129806722 -10.12927795009563
S 571.5875903008805 288.9109344596443 571.5875903008805 324.1758280636809
z" class="circles" fill="none" stroke="none" style="animation-play-state:running" ></path>


<circle cx="0" cy="0" r="7.239850720569313" fill="#6c63ff" opacity="0.9" transform="translate(542.9803466796875 308.4156188964844)" style="opacity:0.9;animation-play-state:running" ></circle>
<path id="path21" d="M 473.24623207195134 309.1515142427063
c 0 33.43492379430301 -8.180885609244351 9.603648323895545 -17.784533933139897 9.603648323895545
S 437.6771642056715 342.5864380370093 437.6771642056715 309.1515142427063
s 8.180885609244351 -9.603648323895545 17.784533933139897 -9.603648323895545
S 473.24623207195134 275.7165904484033 473.24623207195134 309.1515142427063
z" class="circles" fill="none" stroke="none" style="animation-play-state:running" ></path>


<circle cx="0" cy="0" r="5.821463243350433" fill="#6c63ff" opacity="0.9" transform="translate(471.2424011230469 292.3662109375)" style="opacity:0.9;animation-play-state:running" ></circle>
<path id="path22" d="M 472.4040008092371 26.89314285607117
c 0 26.261864226079936 -6.425775289359984 7.5433014266399825 -13.969076715999966 7.5433014266399825
S 444.4658473772372 53.1550070821511 444.4658473772372 26.89314285607117
s 6.425775289359984 -7.5433014266399825 13.969076715999966 -7.5433014266399825
S 472.4040008092371 0.6312786299912325 472.4040008092371 26.89314285607117
z" class="circles" fill="none" stroke="none" style="animation-play-state:running" ></path>


<circle cx="0" cy="0" r="5.1028113286871495" fill="#6c63ff" opacity="0.9" transform="translate(444.4737854003906 25.37009620666504)" style="opacity:0.9;animation-play-state:running" ></circle>
<path id="path23" d="M 359.14430159600795 99.88225577024348
c 0 36.903621098459745 -9.029609417708233 10.599976272961841 -19.629585690670076 10.599976272961841
S 319.8851302146678 136.7858768687032 319.8851302146678 99.88225577024348
s 9.029609417708233 -10.599976272961841 19.629585690670076 -10.599976272961841
S 359.14430159600795 62.97863467178373 359.14430159600795 99.88225577024348
z" class="circles" fill="none" stroke="none" style="animation-play-state:running" ></path>


<circle cx="0" cy="0" r="7.763378942659454" fill="#e6a5bd" opacity="0.9" transform="translate(357.0722961425781 81.58163452148438)" style="opacity:0.9;animation-play-state:running" ></circle>
<path id="path24" d="M 514.9119571561071 178.76036037330604
c 0 19.215793111742542 -4.701736612447642 5.519429936351581 -10.221166548799223 5.519429936351581
S 494.46962405850866 197.9761534850486 494.46962405850866 178.76036037330604
s 4.701736612447642 -5.519429936351581 10.221166548799223 -5.519429936351581
S 514.9119571561071 159.5445672615635 514.9119571561071 178.76036037330604
z" class="circles" fill="none" stroke="none" style="animation-play-state:running" ></path>


<circle cx="0" cy="0" r="7.957232908173377" fill="#e6a5bd" opacity="0.9" transform="translate(494.46978759765625 178.83511352539062)" style="opacity:0.9;animation-play-state:running" ></circle>
<path id="path25" d="M 527.0035636066413 579.4563757076434
c 0 36.847407897779426 -9.015855123924753 10.583829928085581 -19.599685052010333 10.583829928085581
S 487.8041935026206 616.3037836054228 487.8041935026206 579.4563757076434
s 9.015855123924753 -10.583829928085581 19.599685052010333 -10.583829928085581
S 527.0035636066413 542.6089678098639 527.0035636066413 579.4563757076434
z" class="circles" fill="none" stroke="none" style="animation-play-state:running" ></path>


<circle cx="0" cy="0" r="5.732838577718038" fill="#e6a5bd" opacity="0.9" transform="translate(520.8779907226562 598.3960571289062)" style="opacity:0.9;animation-play-state:running" ></circle>
<path id="path26" d="M 628.1195171123205 319.7508999502517
c 0 33.706285435247445 -8.247282606496714 9.681592625017883 -17.928875231514596 9.681592625017883
S 592.2617666492914 353.45718538549914 592.2617666492914 319.7508999502517
s 8.247282606496714 -9.681592625017883 17.928875231514596 -9.681592625017883
S 628.1195171123205 286.0446145150043 628.1195171123205 319.7508999502517
z" class="circles" fill="none" stroke="none" style="animation-play-state:running" ></path>


<circle cx="0" cy="0" r="4.726838798819187" fill="#e6a5bd" opacity="0.9" transform="translate(627.798583984375 329.2575988769531)" style="opacity:0.9;animation-play-state:running" ></circle>
<path id="path27" d="M 980.453726003229 519.1109745229973
c 0 30.33398200973161 -7.422144534296032 8.712952279390995 -16.135096813687028 8.712952279390995
S 948.183532375855 549.4449565327288 948.183532375855 519.1109745229973
s 7.422144534296032 -8.712952279390995 16.135096813687028 -8.712952279390995
S 980.453726003229 488.77699251326567 980.453726003229 519.1109745229973
z" class="circles" fill="none" stroke="none" style="animation-play-state:running" ></path>


<circle cx="0" cy="0" r="6.394770665177294" fill="#e6a5bd" opacity="0.9" transform="translate(968.7639770507812 529.43115234375)" style="opacity:0.9;animation-play-state:running" ></circle>
<path id="path28" d="M 180.2075399245632 40.256857097202754
c 0 35.625726328442944 -8.716933037810506 10.232921392212335 -18.949854430022842 10.232921392212335
S 142.30783106451753 75.88258342564569 142.30783106451753 40.256857097202754
s 8.716933037810506 -10.232921392212335 18.949854430022842 -10.232921392212335
S 180.2075399245632 4.63113076875981 180.2075399245632 40.256857097202754
z" class="circles" fill="none" stroke="none" style="animation-play-state:running" ></path>


<circle cx="0" cy="0" r="5.1809011804408325" fill="#e6a5bd" opacity="0.9" transform="translate(153.62722778320312 26.324607849121094)" style="opacity:0.9;animation-play-state:running" ></circle>
<path id="path29" d="M 580.5331144624171 178.3684130677184
c 0 22.063624480142376 -5.3985464153539855 6.3374240528068535 -11.73597046816084 6.3374240528068535
S 557.0611735260953 200.43203754786077 557.0611735260953 178.3684130677184
s 5.3985464153539855 -6.3374240528068535 11.73597046816084 -6.3374240528068535
S 580.5331144624171 156.304788587576 580.5331144624171 178.3684130677184
z" class="circles" fill="none" stroke="none" style="animation-play-state:running" ></path>


<circle cx="0" cy="0" r="5.812610047754184" class="circles" fill="#e6a5bd" opacity="0.9" transform="translate(557.9954833984375 188.64430236816406)" style="opacity:0.9;animation-play-state:running" ></circle></g></svg>