<?xml version="1.0" encoding="utf-8"?><svg xmlns="http://www.w3.org/2000/svg" xmlns:xlink="http://www.w3.org/1999/xlink" width="1366" height="611" preserveAspectRatio="xMidYMid" viewBox="0 0 1366 611" style="z-index:1;margin-right:-2px;display:block;background-color:rgb(255, 255, 255);animation-play-state:paused" ><g transform="translate(683,305.5) scale(1,1) translate(-683,-305.5)" style="transform:matrix(1, 0, 0, 1, 0, 0);animation-play-state:paused" ><path id="path0" d="M 877.8576049525067 369.17867467266456
c 0 22.28072085573223 -5.451665741296183 6.399781522391173 -11.851447263687355 6.399781522391173
S 854.1547104251321 391.4593955283968 854.1547104251321 369.17867467266456
s 5.451665741296183 -6.399781522391173 11.851447263687355 -6.399781522391173
S 877.8576049525067 346.89795381693233 877.8576049525067 369.17867467266456
z" fill="none" stroke="none" style="animation-play-state:paused" ></path>


<circle cx="0" cy="0" r="4.131013958038339" fill="#ff708e" opacity="0.9" transform="translate(854.1627807617188 370.5962829589844)" style="opacity:0.9;animation-play-state:paused" ></circle>
<path id="path1" d="M 92.9423432642971 33.600298448621906
c 0 26.293593511477045 -6.433538837914596 7.552415157551918 -13.985953995466513 7.552415157551918
S 64.97043527336406 59.893891960098955 64.97043527336406 33.600298448621906
s 6.433538837914596 -7.552415157551918 13.985953995466513 -7.552415157551918
S 92.9423432642971 7.306704937144861 92.9423432642971 33.600298448621906
z" fill="none" stroke="none" style="animation-play-state:paused" ></path>


<circle cx="0" cy="0" r="7.622109926327181" fill="#de9dd6" opacity="0.9" transform="translate(76.07088470458984 41.96727752685547)" style="opacity:0.9;animation-play-state:paused" ></circle>
<path id="path2" d="M 327.894823667155 46.09442791777647
c 0 33.01856274252966 -8.079010032746618 9.484055255832988 -17.563065288579608 9.484055255832988
S 292.7686930899958 79.11299066030614 292.7686930899958 46.09442791777647
s 8.079010032746618 -9.484055255832988 17.563065288579608 -9.484055255832988
S 327.894823667155 13.075865175246811 327.894823667155 46.09442791777647
z" fill="none" stroke="none" style="animation-play-state:paused" ></path>


<circle cx="0" cy="0" r="5.390175612021374" fill="#de9dd6" opacity="0.9" transform="translate(292.8524169921875 40.81721878051758)" style="opacity:0.9;animation-play-state:paused" ></circle>
<path id="path3" d="M 829.9691438785079 92.59938763288415
c 0 24.9062227736122 -6.094075785032771 7.153915051994994 -13.247990837027766 7.153915051994994
S 803.4731622044525 117.50561040649634 803.4731622044525 92.59938763288415
s 6.094075785032771 -7.153915051994994 13.247990837027766 -7.153915051994994
S 829.9691438785079 67.69316485927195 829.9691438785079 92.59938763288415
z" fill="none" stroke="none" style="animation-play-state:paused" ></path>


<circle cx="0" cy="0" r="5.816532616118325" fill="#e0ff77" opacity="0.9" transform="translate(828.9985961914062 103.9563217163086)" style="opacity:0.9;animation-play-state:paused" ></circle>
<path id="path4" d="M 226.70475986916873 57.49718841668813
c 0 35.69567365323464 -8.734047808770178 10.253012645078037 -18.987060453848216 10.253012645078037
S 188.7306389614723 93.19286206992277 188.7306389614723 57.49718841668813
s 8.734047808770178 -10.253012645078037 18.987060453848216 -10.253012645078037
S 226.70475986916873 21.80151476345349 226.70475986916873 57.49718841668813
z" fill="none" stroke="none" style="animation-play-state:paused" ></path>


<circle cx="0" cy="0" r="7.634559517332045" fill="#de9dd6" opacity="0.9" transform="translate(226.70021057128906 56.12876510620117)" style="opacity:0.9;animation-play-state:paused" ></circle>
<path id="path5" d="M 1275.3787172049224 419.5464147424271
c 0 26.067712320099293 -6.378270035768975 7.487534389815754 -13.865804425584729 7.487534389815754
S 1247.647108353753 445.6141270625264 1247.647108353753 419.5464147424271
s 6.378270035768975 -7.487534389815754 13.865804425584729 -7.487534389815754
S 1275.3787172049224 393.4787024223278 1275.3787172049224 419.5464147424271
z" fill="none" stroke="none" style="animation-play-state:paused" ></path>


<circle cx="0" cy="0" r="4.017610200265661" fill="#51cacc" opacity="0.9" transform="translate(1249.81103515625 405.84326171875)" style="opacity:0.9;animation-play-state:paused" ></circle>
<path id="path6" d="M 1039.0603139224465 272.5283377436421
c 0 20.489314154686078 -5.013342825082763 5.88522853379281 -10.898571358875573 5.88522853379281
S 1017.2631712046954 293.0176518983282 1017.2631712046954 272.5283377436421
s 5.013342825082763 -5.88522853379281 10.898571358875573 -5.88522853379281
S 1039.0603139224465 252.03902358895604 1039.0603139224465 272.5283377436421
z" fill="none" stroke="none" style="animation-play-state:paused" ></path>


<circle cx="0" cy="0" r="5.904222999966979" fill="#ff708e" opacity="0.9" transform="translate(1025.0673828125 265.4962463378906)" style="opacity:0.9;animation-play-state:paused" ></circle>
<path id="path7" d="M 1266.2014980618676 473.2176578926588
c 0 24.323389819477473 -5.95146772178704 6.986505586445658 -12.937973308232698 6.986505586445658
S 1240.3255514454024 497.5410477121363 1240.3255514454024 473.2176578926588
s 5.95146772178704 -6.986505586445658 12.937973308232698 -6.986505586445658
S 1266.2014980618676 448.8942680731813 1266.2014980618676 473.2176578926588
z" fill="none" stroke="none" style="animation-play-state:paused" ></path>


<circle cx="0" cy="0" r="5.025313921922703" fill="#9df871" opacity="0.9" transform="translate(1244.9412841796875 461.0990295410156)" style="opacity:0.9;animation-play-state:paused" ></circle>
<path id="path8" d="M 182.35050584648675 495.87859867828894
c 0 32.37538998537071 -7.921637975143895 9.29931414473414 -17.220952119878035 9.29931414473414
S 147.90860160673068 528.2539886636597 147.90860160673068 495.87859867828894
s 7.921637975143895 -9.29931414473414 17.220952119878035 -9.29931414473414
S 182.35050584648675 463.50320869291824 182.35050584648675 495.87859867828894
z" fill="none" stroke="none" style="animation-play-state:paused" ></path>


<circle cx="0" cy="0" r="5.249548575386875" fill="#9df871" opacity="0.9" transform="translate(154.8145294189453 511.4210510253906)" style="opacity:0.9;animation-play-state:paused" ></circle>
<path id="path9" d="M 1369.2269330393967 374.69375149453657
c 0 22.452404133173697 -5.493673351733989 6.449094804209466 -11.942768155943455 6.449094804209466
S 1345.3413967275098 397.14615562771024 1345.3413967275098 374.69375149453657
s 5.493673351733989 -6.449094804209466 11.942768155943455 -6.449094804209466
S 1369.2269330393967 352.2413473613629 1369.2269330393967 374.69375149453657
z" fill="none" stroke="none" style="animation-play-state:paused" ></path>


<circle cx="0" cy="0" r="7.487566540979512" fill="#51cacc" opacity="0.9" transform="translate(1358.2525634765625 381.2580871582031)" style="opacity:0.9;animation-play-state:paused" ></circle>
<path id="path10" d="M 493.0176120372858 535.6909897318181
c 0 19.514860297723747 -4.774912626038788 5.60533221317597 -10.380244839214757 5.60533221317597
S 472.2571223588563 555.2058500295419 472.2571223588563 535.6909897318181
s 4.774912626038788 -5.60533221317597 10.380244839214757 -5.60533221317597
S 493.0176120372858 516.1761294340944 493.0176120372858 535.6909897318181
z" fill="none" stroke="none" style="animation-play-state:paused" ></path>


<circle cx="0" cy="0" r="4.977845697408715" fill="#51cacc" opacity="0.9" transform="translate(472.56060791015625 542.3327026367188)" style="opacity:0.9;animation-play-state:paused" ></circle>
<path id="path11" d="M 1135.957402886716 295.3828209093025
c 0 22.98599231776433 -5.624232162857229 6.602359495528052 -12.226591658385281 6.602359495528052
S 1111.5042195699452 318.3688132270668 1111.5042195699452 295.3828209093025
s 5.624232162857229 -6.602359495528052 12.226591658385281 -6.602359495528052
S 1135.957402886716 272.39682859153817 1135.957402886716 295.3828209093025
z" fill="none" stroke="none" style="animation-play-state:paused" ></path>


<circle cx="0" cy="0" r="5.590711331263215" fill="#ff708e" opacity="0.9" transform="translate(1118.121826171875 285.81341552734375)" style="opacity:0.9;animation-play-state:paused" ></circle>
<path id="path12" d="M 541.4262663599222 89.87702460130048
c 0 19.21781754059988 -4.702231951423375 5.520011421236137 -10.222243372659513 5.520011421236137
S 520.9817796146033 109.09484214190036 520.9817796146033 89.87702460130048
s 4.702231951423375 -5.520011421236137 10.222243372659513 -5.520011421236137
S 541.4262663599222 70.6592070607006 541.4262663599222 89.87702460130048
z" fill="none" stroke="none" style="animation-play-state:paused" ></path>


<circle cx="0" cy="0" r="6.528077355299137" fill="#de9dd6" opacity="0.9" transform="translate(541.3287963867188 85.70390319824219)" style="opacity:0.9;animation-play-state:paused" ></circle>
<path id="path13" d="M 726.7526559386275 177.85931200868188
c 0 19.246817133931344 -4.709327596600222 5.52834109166113 -10.237668688261351 5.52834109166113
S 706.2773185621048 197.1061291426132 706.2773185621048 177.85931200868188
s 4.709327596600222 -5.52834109166113 10.237668688261351 -5.52834109166113
S 726.7526559386275 158.61249487475055 726.7526559386275 177.85931200868188
z" fill="none" stroke="none" style="animation-play-state:paused" ></path>


<circle cx="0" cy="0" r="4.807955027391717" fill="#51cacc" opacity="0.9" transform="translate(725.9525146484375 168.93621826171875)" style="opacity:0.9;animation-play-state:paused" ></circle>
<path id="path14" d="M 933.8679915648876 601.2227779516816
c 0 26.956094235721626 -6.595640078953163 7.742707918771105 -14.338347997724268 7.742707918771105
S 905.1912955694391 628.1788721874032 905.1912955694391 601.2227779516816
s 6.595640078953163 -7.742707918771105 14.338347997724268 -7.742707918771105
S 933.8679915648876 574.26668371596 933.8679915648876 601.2227779516816
z" fill="none" stroke="none" style="animation-play-state:paused" ></path>


<circle cx="0" cy="0" r="5.760484409625668" fill="#51cacc" opacity="0.9" transform="translate(906.6126708984375 614.4218139648438)" style="opacity:0.9;animation-play-state:paused" ></circle>
<path id="path15" d="M 1134.5797549559 91.51078943871653
c 0 18.955496606875744 -4.638047042107895 5.444663918996225 -10.08271096110412 5.444663918996225
S 1114.4143330336917 110.46628604559227 1114.4143330336917 91.51078943871653
s 4.638047042107895 -5.444663918996225 10.08271096110412 -5.444663918996225
S 1134.5797549559 72.55529283184079 1134.5797549559 91.51078943871653
z" fill="none" stroke="none" style="animation-play-state:paused" ></path>


<circle cx="0" cy="0" r="7.180238596419609" fill="#9df871" opacity="0.9" transform="translate(1128.0675048828125 84.49037170410156)" style="opacity:0.9;animation-play-state:paused" ></circle>
<path id="path16" d="M 580.7589257656556 257.36883848076087
c 0 29.7948737315917 -7.290235061985202 8.558102029286978 -15.84833709127218 8.558102029286978
S 549.0622515831113 287.16371221235255 549.0622515831113 257.36883848076087
s 7.290235061985202 -8.558102029286978 15.84833709127218 -8.558102029286978
S 580.7589257656556 227.57396474916916 580.7589257656556 257.36883848076087
z" fill="none" stroke="none" style="animation-play-state:paused" ></path>


<circle cx="0" cy="0" r="7.869654060395656" fill="#ff708e" opacity="0.9" transform="translate(574.5601806640625 242.9397430419922)" style="opacity:0.9;animation-play-state:paused" ></circle>
<path id="path17" d="M 522.5773328753156 309.64186873586783
c 0 23.32804368014478 -5.70792558131202 6.700608291105415 -12.408533872417436 6.700608291105415
S 497.7602651304807 332.9699124160126 497.7602651304807 309.64186873586783
s 5.70792558131202 -6.700608291105415 12.408533872417436 -6.700608291105415
S 522.5773328753156 286.31382505572304 522.5773328753156 309.64186873586783
z" fill="none" stroke="none" style="animation-play-state:paused" ></path>


<circle cx="0" cy="0" r="6.8250011667299875" fill="#ff708e" opacity="0.9" transform="translate(498.6171569824219 320.11346435546875)" style="opacity:0.9;animation-play-state:paused" ></circle>
<path id="path18" d="M 258.74289278890643 147.2256867863787
c 0 30.66992621219417 -7.50434364766453 8.809446890736623 -16.313790538401154 8.809446890736623
S 226.11531171210413 177.89561299857286 226.11531171210413 147.2256867863787
s 7.50434364766453 -8.809446890736623 16.313790538401154 -8.809446890736623
S 258.74289278890643 116.55576057418453 258.74289278890643 147.2256867863787
z" fill="none" stroke="none" style="animation-play-state:paused" ></path>


<circle cx="0" cy="0" r="7.807834241328004" fill="#ff708e" opacity="0.9" transform="translate(252.48992919921875 162.1793670654297)" style="opacity:0.9;animation-play-state:paused" ></circle>
<path id="path19" d="M 372.78854576146637 436.22178212276606
c 0 37.24201163515185 -9.112407102218006 10.69717355477766 -19.809580656995664 10.69717355477766
S 333.16938444747507 473.4637937579179 333.16938444747507 436.22178212276606
s 9.112407102218006 -10.69717355477766 19.809580656995664 -10.69717355477766
S 372.78854576146637 398.9797704876142 372.78854576146637 436.22178212276606
z" fill="none" stroke="none" style="animation-play-state:paused" ></path>


<circle cx="0" cy="0" r="6.209324725255845" fill="#e0ff77" opacity="0.9" transform="translate(364.999267578125 418.21893310546875)" style="opacity:0.9;animation-play-state:paused" ></circle>
<path id="path20" d="M 42.60023950546332 480.78360128909475
c 0 24.242419853781165 -5.931655921669859 6.963248255873313 -12.894904177543172 6.963248255873313
S 16.81043115037698 505.0260211428759 16.81043115037698 480.78360128909475
s 5.931655921669859 -6.963248255873313 12.894904177543172 -6.963248255873313
S 42.60023950546332 456.5411814353136 42.60023950546332 480.78360128909475
z" fill="none" stroke="none" style="animation-play-state:paused" ></path>


<circle cx="0" cy="0" r="6.336582153921263" fill="#51cacc" opacity="0.9" transform="translate(42.404273986816406 474.38397216796875)" style="opacity:0.9;animation-play-state:paused" ></circle>
<path id="path21" d="M 38.04354995553588 553.6858614666445
c 0 22.473800502299156 -5.498908633541283 6.455240569809332 -11.954149203350614 6.455240569809332
S 14.135251548834656 576.1596619689436 14.135251548834656 553.6858614666445
s 5.498908633541283 -6.455240569809332 11.954149203350614 -6.455240569809332
S 38.04354995553588 531.2120609643454 38.04354995553588 553.6858614666445
z" fill="none" stroke="none" style="animation-play-state:paused" ></path>


<circle cx="0" cy="0" r="7.732826107572784" fill="#9df871" opacity="0.9" transform="translate(21.15781021118164 562.5730590820312)" style="opacity:0.9;animation-play-state:paused" ></circle>
<path id="path22" d="M 1313.0231419921759 77.85165711264803
c 0 31.458801828233312 -7.69736640478049 9.036038823003185 -16.733405227783674 9.036038823003185
S 1279.5563315366087 109.31045894088135 1279.5563315366087 77.85165711264803
s 7.69736640478049 -9.036038823003185 16.733405227783674 -9.036038823003185
S 1313.0231419921759 46.392855284414715 1313.0231419921759 77.85165711264803
z" fill="none" stroke="none" style="animation-play-state:paused" ></path>


<circle cx="0" cy="0" r="5.688395520893895" fill="#de9dd6" opacity="0.9" transform="translate(1283.912353515625 61.247161865234375)" style="opacity:0.9;animation-play-state:paused" ></circle>
<path id="path23" d="M 390.60554124232397 194.76088968268917
c 0 27.476702254906936 -6.723022892158079 7.892244264707311 -14.61526715686539 7.892244264707311
S 361.37500692859317 222.2375919375961 361.37500692859317 194.76088968268917
s 6.723022892158079 -7.892244264707311 14.61526715686539 -7.892244264707311
S 390.60554124232397 167.28418742778223 390.60554124232397 194.76088968268917
z" fill="none" stroke="none" style="animation-play-state:paused" ></path>


<circle cx="0" cy="0" r="5.730510948250734" fill="#51cacc" opacity="0.9" transform="translate(390.4932556152344 189.32705688476562)" style="opacity:0.9;animation-play-state:paused" ></circle>
<path id="path24" d="M 776.0299885415964 351.2273402041117
c 0 20.88790462496008 -5.110870280575337 5.999717285892789 -11.110587566468126 5.999717285892789
S 753.8088134086602 372.1152448290718 753.8088134086602 351.2273402041117
s 5.110870280575337 -5.999717285892789 11.110587566468126 -5.999717285892789
S 776.0299885415964 330.33943557915165 776.0299885415964 351.2273402041117
z" fill="none" stroke="none" style="animation-play-state:paused" ></path>


<circle cx="0" cy="0" r="6.704473454863718" fill="#9df871" opacity="0.9" transform="translate(753.8336791992188 353.5830383300781)" style="opacity:0.9;animation-play-state:paused" ></circle>
<path id="path25" d="M 647.1923809354315 564.2139088290593
c 0 23.366264022424076 -5.71727736718887 6.711586474526065 -12.428863841714934 6.711586474526065
S 622.3346532520017 587.5801728514833 622.3346532520017 564.2139088290593
s 5.71727736718887 -6.711586474526065 12.428863841714934 -6.711586474526065
S 647.1923809354315 540.8476448066352 647.1923809354315 564.2139088290593
z" fill="none" stroke="none" style="animation-play-state:paused" ></path>


<circle cx="0" cy="0" r="7.7799548347799705" fill="#e0ff77" opacity="0.9" transform="translate(647.1849975585938 562.8296508789062)" style="opacity:0.9;animation-play-state:paused" ></circle>
<path id="path26" d="M 23.44411224834879 126.03570629002486
c 0 31.050545647159506 -7.597473934943283 8.918773749716028 -16.516247684659312 8.918773749716028
S -9.588383120969834 157.08625193718436 -9.588383120969834 126.03570629002486
s 7.597473934943283 -8.918773749716028 16.516247684659312 -8.918773749716028
S 23.44411224834879 94.98516064286535 23.44411224834879 126.03570629002486
z" fill="none" stroke="none" style="animation-play-state:paused" ></path>


<circle cx="0" cy="0" r="5.7641320950916946" fill="#51cacc" opacity="0.9" transform="translate(23.210142135620117 134.00497436523438)" style="opacity:0.9;animation-play-state:paused" ></circle>
<path id="path27" d="M 750.3076895007364 104.85779185097681
c 0 22.049167866365686 -5.395009158791604 6.3332716211901445 -11.728280779981748 6.3332716211901445
S 726.8511279407728 126.90695971734249 726.8511279407728 104.85779185097681
s 5.395009158791604 -6.3332716211901445 11.728280779981748 -6.3332716211901445
S 750.3076895007364 82.80862398461113 750.3076895007364 104.85779185097681
z" fill="none" stroke="none" style="animation-play-state:paused" ></path>


<circle cx="0" cy="0" r="6.52727082379107" fill="#9df871" opacity="0.9" transform="translate(727.2799682617188 96.73448944091797)" style="opacity:0.9;animation-play-state:paused" ></circle>
<path id="path28" d="M 1074.665599021989 509.11513534824064
c 0 29.349739748264785 -7.181319300107341 8.430244395778184 -15.611563695885524 8.430244395778184
S 1043.442471630218 538.4648750965055 1043.442471630218 509.11513534824064
s 7.181319300107341 -8.430244395778184 15.611563695885524 -8.430244395778184
S 1074.665599021989 479.7653955999759 1074.665599021989 509.11513534824064
z" fill="none" stroke="none" style="animation-play-state:paused" ></path>


<circle cx="0" cy="0" r="5.793409399186957" fill="#de9dd6" opacity="0.9" transform="translate(1071.5074462890625 493.4613342285156)" style="opacity:0.9;animation-play-state:paused" ></circle>
<path id="path29" d="M 1279.5172245720792 382.83643484306174
c 0 32.842934363700486 -8.036037131543734 9.43360880659482 -17.469645938138555 9.43360880659482
S 1244.5779326958022 415.6793692067622 1244.5779326958022 382.83643484306174
s 8.036037131543734 -9.43360880659482 17.469645938138555 -9.43360880659482
S 1279.5172245720792 349.9935004793613 1279.5172245720792 382.83643484306174
z" fill="none" stroke="none" style="animation-play-state:paused" ></path>


<circle cx="0" cy="0" r="6.238448435618821" fill="#9df871" opacity="0.9" transform="translate(1266.62646484375 371.8143615722656)" style="opacity:0.9;animation-play-state:paused" ></circle></g></svg>